<svg id="eWhxLbKVtrg1" xmlns="http://www.w3.org/2000/svg" xmlns:xlink="http://www.w3.org/1999/xlink" viewBox="0 0 90 82.8" shape-rendering="geometricPrecision" text-rendering="geometricPrecision"><path d="M0,0C6.688,13.684,35.794,9.53,49,11.714c4.31.713,14.543,2.249,14.543-4.743C63.543,-0.083,53.852,0,49,0C30.817,0,18.077,5.168,0,0Z" fill="#d3a964"/><path d="M74,4C88.162,31.063,45.901,16.01,34,14.3c-3.584-.515-7.813-.651-10.945,1.442C13.173,22.345,18.796,43.119,19,53c5.756-1.646,10.792-4.807,17-3.481C58.452,54.317,43.828,75.244,26,71c4.656,13.688,21.038,14.103,32,8.096C74.332,70.146,89.51,49.091,89.985,30C90.286,17.937,86.987,7.283,74,4Z" fill="#d3a964"/><path d="M21.149,57.028c-7.594,4.526,3.11,11.099,8.703,7.793c8.046-4.756-2.962-11.216-8.703-7.793Z" fill="#d3a964"/></svg>